/* XPM */
static char *dummy[]={
"32 32 4 1",
". c #000000",
"# c #00cc00",
"a c #558800",
"b c #ffffff",
".........##.....##..............",
".#......#aa#...#aa#....####.....",
".#......#aa#...#aa#....####.....",
"#a#.....#aaa##..#aa#..#aaaa#....",
"#a#.....#aaa##..#aa#..#aaaa#....",
".#a########aaa#..#a#..#a###.....",
".#a########aaa#..#a#..#a###.....",
".#aaaaaaa####aa##aa####a#.......",
".#aaaaaaa####aa##aa####a#.......",
"..######aaa##aa#aaaaaaaa#.......",
"..######aaa##aa#aaaaaaaa#.......",
"...##....#aa##aa#b#b##aa#.......",
"...##....#aa##aa#b#b##aa#.......",
"..#aa###..#aaab#b#baaa#####..##.",
"..#aa###..#aaab#b#baaa#####..##.",
".#aaaaaa##a##b#b#ba##aaaaaa##aa#",
".#aaaaaa##a##b#b#ba##aaaaaa##aa#",
"#aa####aaaaaa#b#aaaa######aaaa#.",
"#aa####aaaaaa#b#aaaa######aaaa#.",
".##....##aa##aaaa##aaaaa#.####..",
".##....##aa##aaaa##aaaaa#.####..",
".........#a#.##aaa#.#aaa#.......",
".........#a#.##aaa#.#aaa#.......",
"........#aa#...##aa##a##........",
"........#aa#...##aa##a##........",
".......#aa#.####aaa##aaa######..",
".......#aa#.####aaa##aaa######..",
"......#aa#.#aaaaa##..##aaaaaaa#.",
"......#aa#.#aaaaa##..##aaaaaaa#.",
".......##..#a####......#######..",
".......##..#a####......#######..",
"............#..................."};
